# xmcd
#
# Track frame offsets: 
#        151
#        14917
#        25684
#        41623
#        60958
#        78608
#        95924
#        115443
#        133844
#        147584
#        166031
#        182313
#        204157
#        219091
#        246595
#        264288
#        278777
#        299909
#        317557
#
# Disc length: 4447 seconds
#
# Revision: 0
# Processed by: cddbd v1.5.1PL0 Copyright (c) Steve Scherf et al.
# Submitted via: ExactAudioCopy v0.95a3
#
DISCID=1c115d13
DTITLE=Кристина Орбакайте - В Гостях У Русской Дискотеки
DYEAR=2001
DGENRE=Pop
TTITLE0=Робот
TTITLE1=Мой Мир
TTITLE2=Май
TTITLE3=Обещание
TTITLE4=Никогда
TTITLE5=Без Тебя
TTITLE6=Ты
TTITLE7=Эпизод
TTITLE8=Я Тебя Подожду
TTITLE9=Танго Втроём
TTITLE10=Не Бей Любовь
TTITLE11=Параходик
TTITLE12=Смородина
TTITLE13=Вербочки
TTITLE14=Музыкант
TTITLE15=Зеркальце
TTITLE16=Безпризорная Душа
TTITLE17=Десять Вечеров
TTITLE18=Аист
EXTD=
EXTT0=
EXTT1=
EXTT2=
EXTT3=
EXTT4=
EXTT5=
EXTT6=
EXTT7=
EXTT8=
EXTT9=
EXTT10=
EXTT11=
EXTT12=
EXTT13=
EXTT14=
EXTT15=
EXTT16=
EXTT17=
EXTT18=
PLAYORDER=
